<?xml version="1.0" encoding="utf-8"?>
<!-- Generator: Adobe Illustrator 15.1.0, SVG Export Plug-In . SVG Version: 6.00 Build 0)  -->
<!DOCTYPE svg PUBLIC "-//W3C//DTD SVG 1.1//EN" "http://www.w3.org/Graphics/SVG/1.1/DTD/svg11.dtd">
<svg version="1.1" id="Ebene_2" xmlns="http://www.w3.org/2000/svg" xmlns:xlink="http://www.w3.org/1999/xlink" x="0px" y="0px"
	 width="496.553px" height="480px" viewBox="0 0 496.553 480" enable-background="new 0 0 496.553 480" xml:space="preserve">
<g>
	<rect x="229.553" y="18" fill="#31353A" width="37" height="19"/>
	<polygon fill="#31353A" points="285.553,222 285.553,166 322.553,166 322.553,148 285.553,148 285.553,37 266.553,37 266.553,222 	
		"/>
	<polygon fill="#31353A" points="211.553,222 229.553,222 229.553,37 211.553,37 211.553,148 174.553,148 174.553,166 211.553,166 	
		"/>
	<polygon fill="#31353A" points="155.553,240 155.553,296 174.553,296 174.553,166 155.553,166 155.553,222 137.553,222 
		137.553,240 	"/>
	<polygon fill="#31353A" points="137.553,222 137.553,203 81.553,203 81.553,221.5 81.553,259 100.553,259 100.553,222 	"/>
	<rect x="100.553" y="259" fill="#31353A" width="18" height="18"/>
	<rect x="118.553" y="277" fill="#31353A" width="19" height="37"/>
	<rect x="137.553" y="314" fill="#31353A" width="18" height="37"/>
	<rect x="155.553" y="351" fill="#31353A" width="19" height="37"/>
	<polygon fill="#31353A" points="193.053,388 174.553,388 174.553,462 192.553,462 192.553,407 359.553,407 359.553,462 
		377.553,462 377.553,388 359.553,388 	"/>
	<polygon fill="#31353A" points="340.553,240 340.553,185 377.553,185 377.553,166 341.053,166 322.553,166 322.553,240 	"/>
	<rect x="377.553" y="185" fill="#31353A" width="19" height="18"/>
	<rect x="396.553" y="203" fill="#31353A" width="18" height="130"/>
	<rect x="377.553" y="333" fill="#31353A" width="19" height="55"/>
</g>
<rect x="192.553" y="407" fill="#6883AF" width="167" height="55"/>
<g>
	<polygon fill="#ECEEF7" points="137.553,240 137.553,222 119.053,222 100.553,222 100.553,259 118.553,259 118.553,240 	"/>
	<polygon fill="#ECEEF7" points="174.553,166 174.553,296 192.553,296 192.553,185 211.553,185 211.553,166 193.053,166 	"/>
	<polygon fill="#ECEEF7" points="229.553,37 229.553,222 248.553,222 248.553,55 266.553,55 266.553,37 248.553,37 	"/>
	<polygon fill="#ECEEF7" points="285.553,166 285.553,222 303.553,222 303.553,185 322.553,185 322.553,166 304.053,166 	"/>
	<polygon fill="#ECEEF7" points="359.553,185 340.553,185 340.553,240 359.553,240 359.553,203 377.553,203 377.553,185 	"/>
	<rect x="118.553" y="259" fill="#ECEEF7" width="19" height="18"/>
	<rect x="137.553" y="277" fill="#ECEEF7" width="18" height="37"/>
	<rect x="155.553" y="314" fill="#ECEEF7" width="19" height="37"/>
	<rect x="174.553" y="351" fill="#ECEEF7" width="18" height="37"/>
</g>
<rect x="211.553" y="425" fill="#758EB4" width="148" height="37"/>
<rect x="174.553" y="370" fill="#D2D3D3" width="203" height="18"/>
<g>
	<polygon fill="#FFFFFF" points="155.553,277 155.553,240 137.553,240 118.553,240 118.553,259 137.553,259 137.553,277 	"/>
	<polygon fill="#FFFFFF" points="396.553,203 359.553,203 359.553,240 322.553,240 322.553,221.5 322.553,185 303.553,185 
		303.553,222 266.553,222 266.553,55 248.553,55 248.553,222 211.553,222 211.553,185 192.553,185 192.553,296 174.553,296 
		155.553,296 155.553,314 174.553,314 174.553,351 192.553,351 192.553,370 211.553,370 248.553,370 267.053,370 322.553,370 
		377.553,370 377.553,333 396.553,333 	"/>
</g>
</svg>
