<?xml version="1.0" encoding="utf-8"?>
<!-- Generator: Adobe Illustrator 15.1.0, SVG Export Plug-In . SVG Version: 6.00 Build 0)  -->
<!DOCTYPE svg PUBLIC "-//W3C//DTD SVG 1.1//EN" "http://www.w3.org/Graphics/SVG/1.1/DTD/svg11.dtd">
<svg version="1.1" id="Ebene_2" xmlns="http://www.w3.org/2000/svg" xmlns:xlink="http://www.w3.org/1999/xlink" x="0px" y="0px"
	 width="256px" height="256px" viewBox="172 172 256 256" enable-background="new 172 172 256 256" xml:space="preserve">
<g>
	<g>
		<rect x="290.719" y="190.108" fill="#31353A" width="18.541" height="9.491"/>
		<polygon fill="#31353A" points="318.305,290.957 318.305,263.369 336.855,263.369 336.855,254.772 318.305,254.772 318.305,199.6 
			309.26,199.6 309.26,290.957 		"/>
		<polygon fill="#31353A" points="282.13,290.957 290.719,290.957 290.719,199.6 282.13,199.6 282.13,254.772 263.587,254.772 
			263.587,263.369 282.13,263.369 		"/>
		<polygon fill="#31353A" points="254.542,300 254.542,327.579 263.587,327.579 263.587,263.369 254.542,263.369 254.542,290.957 
			245.495,290.957 245.495,300 		"/>
		<polygon fill="#31353A" points="245.495,290.957 245.495,281.905 217.455,281.905 217.455,290.87 217.455,309.483 
			226.954,309.483 226.954,290.957 		"/>
		<rect x="226.954" y="309.483" fill="#31353A" width="8.593" height="8.607"/>
		<rect x="235.547" y="318.091" fill="#31353A" width="9.948" height="18.535"/>
		<rect x="245.495" y="336.626" fill="#31353A" width="9.047" height="18.551"/>
		<rect x="254.542" y="355.177" fill="#31353A" width="9.045" height="18.09"/>
		<polygon fill="#31353A" points="272.769,373.267 263.587,373.267 263.587,409.896 272.627,409.896 272.627,382.755 
			355.389,382.755 355.389,409.896 364.416,409.896 364.416,373.267 355.154,373.267 		"/>
		<polygon fill="#31353A" points="345.436,300 345.436,272.861 364.416,272.861 364.416,263.369 346.043,263.369 336.855,263.369 
			336.855,300 		"/>
		<rect x="364.416" y="272.861" fill="#31353A" width="9.065" height="9.044"/>
		<rect x="373.481" y="281.905" fill="#31353A" width="9.033" height="64.223"/>
		<rect x="364.416" y="346.128" fill="#31353A" width="9.065" height="27.139"/>
	</g>
	<rect x="272.627" y="382.755" fill="#6883AF" width="82.762" height="27.141"/>
	<g>
		<polygon fill="#ECEEF7" points="245.495,300 245.495,290.957 236.135,290.957 226.954,290.957 226.954,309.483 235.547,309.483 
			235.547,300 		"/>
		<polygon fill="#ECEEF7" points="263.587,263.369 263.587,327.579 272.627,327.579 272.627,272.861 282.13,272.861 282.13,263.369 
			272.769,263.369 		"/>
		<polygon fill="#ECEEF7" points="290.719,199.6 290.719,290.957 300.207,290.957 300.207,208.193 309.26,208.193 309.26,199.6 
			300.207,199.6 		"/>
		<polygon fill="#ECEEF7" points="318.305,263.369 318.305,290.957 327.338,290.957 327.338,272.861 336.855,272.861 
			336.855,263.369 327.693,263.369 		"/>
		<polygon fill="#ECEEF7" points="355.154,272.861 345.436,272.861 345.436,300 355.389,300 355.389,281.905 364.416,281.905 
			364.416,272.861 		"/>
		<rect x="235.547" y="309.483" fill="#ECEEF7" width="9.948" height="8.607"/>
		<rect x="245.495" y="318.091" fill="#ECEEF7" width="9.047" height="18.535"/>
		<rect x="254.542" y="336.626" fill="#ECEEF7" width="9.045" height="18.551"/>
		<rect x="263.587" y="355.177" fill="#ECEEF7" width="9.04" height="18.09"/>
	</g>
	<rect x="282.13" y="391.794" fill="#758EB4" width="73.259" height="18.102"/>
	<rect x="263.587" y="364.651" fill="#D2D3D3" width="100.829" height="8.615"/>
	<g>
		<polygon fill="#FFFFFF" points="254.542,318.091 254.542,300 245.274,300 235.547,300 235.547,309.483 245.495,309.483 
			245.495,318.091 		"/>
		<polygon fill="#FFFFFF" points="373.481,281.905 355.389,281.905 355.389,300 336.855,300 336.855,290.87 336.855,272.861 
			327.338,272.861 327.338,290.957 309.26,290.957 309.26,208.193 300.207,208.193 300.207,290.957 282.13,290.957 282.13,272.861 
			272.627,272.861 272.627,327.579 263.587,327.579 254.542,327.579 254.542,336.626 263.587,336.626 263.587,355.177 
			272.627,355.177 272.627,364.651 281.891,364.651 300.207,364.651 309.4,364.651 336.855,364.651 364.416,364.651 
			364.416,346.128 373.481,346.128 		"/>
	</g>
</g>
</svg>
